<?xml version="1.0" encoding="UTF-8"?><svg id="Capa_2" xmlns="http://www.w3.org/2000/svg" xmlns:xlink="http://www.w3.org/1999/xlink" viewBox="0 0 454.68 444.83"><defs><style>.cls-1,.cls-2,.cls-3,.cls-4,.cls-5,.cls-6,.cls-7{fill:none;}.cls-2,.cls-3,.cls-7{stroke-miterlimit:10;}.cls-2,.cls-4,.cls-6{stroke-width:3.97px;}.cls-2,.cls-7{stroke:#453a36;}.cls-3{stroke-width:23.81px;}.cls-3,.cls-5,.cls-6{stroke:#fff;}.cls-4{stroke:#cc9932;}.cls-4,.cls-5,.cls-6{stroke-linecap:round;stroke-linejoin:round;}.cls-8{font-size:24.95px;}.cls-8,.cls-9,.cls-10,.cls-11,.cls-12{fill:#453a36;}.cls-8,.cls-13{font-family:BarlowSemiCondensed-Medium, 'Barlow Semi Condensed';font-weight:500;}.cls-9{font-size:26.77px;}.cls-9,.cls-10,.cls-11{font-family:BarlowSemiCondensed-LightItalic, 'Barlow Semi Condensed';font-style:italic;font-weight:300;}.cls-10{font-size:26.77px;}.cls-11{font-size:26.77px;}.cls-5{stroke-width:7.94px;}.cls-14{letter-spacing:0em;}.cls-15{letter-spacing:0em;}.cls-16{fill:#cc9932;}.cls-17{fill:#e5e2e2;}.cls-13{fill:#958b87;font-size:33.26px;}.cls-18{letter-spacing:-.01em;}.cls-19{letter-spacing:-.03em;}.cls-20{letter-spacing:0em;}.cls-21{letter-spacing:0em;}.cls-22{letter-spacing:0em;}.cls-23{letter-spacing:0em;}.cls-24{letter-spacing:0em;}.cls-25{letter-spacing:0em;}.cls-26{letter-spacing:0em;}.cls-27{letter-spacing:0em;}.cls-12{font-family:BarlowSemiCondensed-SemiBold, 'Barlow Semi Condensed';font-size:37.42px;font-weight:600;}.cls-28{letter-spacing:0em;}.cls-29{letter-spacing:0em;}.cls-30{letter-spacing:.1em;}.cls-31{letter-spacing:.09em;}.cls-32{clip-path:url(#clippath);}.cls-7{stroke-width:1.98px;}.cls-33{letter-spacing:0em;}</style><clipPath id="clippath"><rect class="cls-1" width="454.68" height="444.83"/></clipPath></defs><g id="Capa_3"><g class="cls-32"><rect class="cls-17" x="-3.09" y="-.12" width="458.27" height="448.31"/><line class="cls-5" x1="209.76" y1="-52.84" x2="267.46" y2="497.36"/><line class="cls-5" x1="-32.26" y1="124.26" x2="457.5" y2="69.54"/><line class="cls-5" x1="-6.27" y1="270.58" x2="483.49" y2="215.86"/><line class="cls-5" x1="13.6" y1="416.9" x2="503.35" y2="362.18"/><polyline class="cls-5" points="433.54 478.03 384.68 193 352.11 -85.25"/><line class="cls-6" x1="304.62" y1="303.42" x2="295.41" y2="236.88"/><polyline class="cls-6" points="125.86 475.69 111.5 336.04 107.59 243.22"/><line class="cls-6" x1="184.48" y1="397.81" x2="192.4" y2="461.96"/><path class="cls-3" d="M66.73-10.05l18.3,145.61c2.66,21.2,2.4,42.67-.79,63.8l-37.12,246.05"/><path class="cls-3" d="M27.01-10.05l18.3,145.61c2.66,21.2,2.4,42.67-.79,63.8L7.4,445.4"/><rect class="cls-16" x="167.24" y="161.33" width="59.14" height="73.26" transform="translate(-19.3 21.27) rotate(-5.9)"/><text class="cls-9" transform="translate(117.2 100.52) rotate(-5.9)"><tspan class="cls-24" x="0" y="0">C</tspan><tspan x="13.41" y="0">ompañía de Jesus</tspan></text><text class="cls-9" transform="translate(281.09 229.13) rotate(-5.9)"><tspan x="0" y="0">Hué</tspan><tspan class="cls-33" x="39.12" y="0">r</tspan><tspan class="cls-19" x="47.68" y="0">f</tspan><tspan class="cls-14" x="54.86" y="0">anos</tspan></text><text class="cls-9" transform="translate(304.54 374.09) rotate(-5.9)"><tspan class="cls-23" x="0" y="0">A</tspan><tspan x="13.15" y="0">gustinas</tspan></text><text class="cls-9" transform="translate(232.89 109.42) rotate(84.1)"><tspan x="0" y="0">San Ma</tspan><tspan class="cls-33" x="71.38" y="0">r</tspan><tspan x="79.95" y="0">tín</tspan></text><text class="cls-11" transform="translate(56.85 296.66) rotate(-81.76)"><tspan class="cls-29" x="0" y="0">A</tspan><tspan class="cls-15" x="13.36" y="0">u</tspan><tspan class="cls-27" x="25.73" y="0">t</tspan><tspan x="33.57" y="0">o</tspan><tspan class="cls-22" x="45.86" y="0">p</tspan><tspan x="58.31" y="0">. </tspan><tspan class="cls-25" x="69.58" y="0">C</tspan><tspan x="83" y="0">ent</tspan><tspan class="cls-20" x="115.55" y="0">r</tspan><tspan x="123.75" y="0">al</tspan></text><text class="cls-12" transform="translate(130.11 303.42)"><tspan class="cls-28" x="0" y="0">P</tspan><tspan x="19.57" y="0">alacio</tspan><tspan class="cls-18" x=".64" y="41.58">P</tspan><tspan x="19.83" y="41.58">e</tspan><tspan class="cls-26" x="37.94" y="41.58">r</tspan><tspan x="50.55" y="41.58">ei</tspan><tspan class="cls-21" x="77.49" y="41.58">r</tspan><tspan x="90.25" y="41.58">a</tspan></text><line class="cls-4" x1="188.44" y1="267.32" x2="188.44" y2="206.43"/><text class="cls-13" transform="translate(134.47 48.49)"><tspan class="cls-30" x="0" y="0">SANTI</tspan><tspan class="cls-31" x="96.19" y="0">A</tspan><tspan class="cls-30" x="117.34" y="0">GO</tspan></text><text class="cls-10" transform="translate(387.07 146.9)"><tspan x="0" y="0">50 m</tspan></text><circle class="cls-7" cx="45.35" cy="55.25" r="17.76"/><line class="cls-2" x1="45.35" y1="31.66" x2="45.35" y2="42.74"/><text class="cls-8" transform="translate(38.07 65.39)"><tspan x="0" y="0">N</tspan></text><line class="cls-2" x1="384.56" y1="118.32" x2="438.17" y2="118.32"/></g></g></svg>